#!OML:ASF H:\ManfredObstacles\Project 1\Capture day 1\Session 1\Male.ASF
:FULLY-SPECIFIED
:DEGREES
582
root 6.47312 16.7867 -21.8899 -165.414 -9.31238 -179.934
lowerback -11.7582 -2.30393 1.40217
upperback -0.224417 -3.34241 0.295858
thorax 6.29684 -1.62912 -1.04725
lowerneck 2.31802 -3.49345 -6.08311
upperneck -13.3311 -4.49744 12.3815
head -3.87656 -2.92107 5.01867
rclavicle 3.38058e-014 -2.93207e-015
rhumerus -38.1095 -27.6694 -74.6743
rradius 26.3831
rwrist 34.9565
rhand -0.467072 -3.47883
rfingers 7.12502
rthumb 25.1429 -31.8431
lclavicle 3.38058e-014 -2.93207e-015
lhumerus -23.6909 13.3592 86.4595
lradius 15.9388
lwrist -35.8765
lhand -10.0613 7.68731
lfingers 7.12502
lthumb 15.9247 37.0526
rfemur -28.3359 -2.8801 22.9078
rtibia 24.509
rfoot -14.9526 13.3158
rtoes 29.6684
lfemur 8.3188 -2.42499 -12.9547
ltibia -1.27222e-014
lfoot 24.0295 -13.4873
ltoes 14.3654
583
root 6.46752 16.7862 -21.8952 -165.447 -9.29217 -180.011
lowerback -11.7693 -2.32417 1.31638
upperback -0.226812 -3.35654 0.274954
thorax 6.30379 -1.63824 -1.02396
lowerneck 2.12082 -3.54444 -6.01681
upperneck -13.0755 -4.56775 12.335
head -3.76296 -2.94142 4.98006
rclavicle 5.64051e-015 4.96962e-016
rhumerus -38.2142 -27.5907 -74.604
rradius 26.3194
rwrist 34.8024
rhand -0.518826 -3.48737
rfingers 7.12502
rthumb 25.0933 -31.8586
lclavicle 5.64051e-015 4.96962e-016
lhumerus -23.8952 14.4061 85.9037
lradius 15.5457
lwrist -36.7901
lhand -9.8764 7.98751
lfingers 7.12502
lthumb 16.1027 37.3385
rfemur -28.2303 -2.88483 22.7872
rtibia 24.5188
rfoot -14.8145 13.3188
rtoes 29.7585
lfemur 8.40617 -2.43372 -13.0762
ltibia 1.90833e-014
lfoot 24.03 -13.4994
ltoes 14.2246
584
root 6.46359 16.7891 -21.8981 -165.5 -9.36062 -179.894
lowerback -11.7909 -2.36499 1.38044
upperback -0.208258 -3.42401 0.340305
thorax 6.33445 -1.66966 -1.00422
lowerneck 2.04576 -3.4697 -6.04627
upperneck -12.9938 -4.46464 12.4111
head -3.73239 -2.8903 5.00201
rclavicle 1.53934e-014 -3.37934e-015
rhumerus -38.2416 -27.5216 -74.5501
rradius 26.261
rwrist 34.7361
rhand -0.604975 -3.57486
rfingers 7.12502
rthumb 25.0108 -31.9576
lclavicle 1.53934e-014 -3.37934e-015
lhumerus -24.087 15.2171 85.4459
lradius 15.2792
lwrist -37.3541
lhand -9.96937 7.8699
lfingers 7.12502
lthumb 16.0131 37.2281
rfemur -28.1741 -2.87959 22.8989
rtibia 24.5636
rfoot -14.7151 13.2826
rtoes 30.2174
lfemur 8.43497 -2.4747 -12.9389
ltibia 3.81667e-014
lfoot 24.0779 -13.6095
ltoes 14.078
585
root 6.46156 16.7917 -21.8995 -165.491 -9.387 -179.942
lowerback -11.8105 -2.37803 1.27045
upperback -0.211562 -3.42819 0.359346
thorax 6.34949 -1.67526 -0.924292
lowerneck 2.02399 -3.45709 -6.11363
upperneck -13.0083 -4.44475 12.5198
head -3.72973 -2.88522 5.0469
rclavicle -1.93442e-014 -3.72721e-015
rhumerus -38.334 -27.632 -74.3706
rradius 26.1827
rwrist 34.8047
rhand -0.676843 -3.68129
rfingers 7.12502
rthumb 24.9419 -32.0736
lclavicle -1.93442e-014 -3.72721e-015
lhumerus -24.2595 16.0751 84.9726
lradius 14.9587
lwrist -38.2338
lhand -10.1618 7.50021
lfingers 7.12502
lthumb 15.8278 36.8732
rfemur -28.2036 -2.79621 22.8113
rtibia 24.605
rfoot -14.7309 13.2326
rtoes 31.0431
lfemur 8.41203 -2.51072 -12.9864
ltibia -3.18055e-015
lfoot 24.1281 -13.6285
ltoes 14.1333
586
root 6.45954 16.7904 -21.901 -165.419 -9.31525 -180.211
lowerback -11.825 -2.33088 0.988738
upperback -0.242079 -3.32184 0.265036
thorax 6.33756 -1.63096 -0.847351
lowerneck 1.9619 -3.542 -6.14347
upperneck -12.9466 -4.55549 12.617
head -3.68603 -2.94065 5.08058
rclavicle -5.479e-015 0
rhumerus -38.5588 -27.9392 -74.1091
rradius 26.0879
rwrist 34.9739
rhand -0.795277 -3.68471
rfingers 7.12502
rthumb 24.8284 -32.0927
lclavicle -5.479e-015 0
lhumerus -24.4656 16.9486 84.4361
lradius 14.6314
lwrist -39.4541
lhand -10.2737 7.27799
lfingers 7.12502
lthumb 15.72 36.6595
rfemur -28.201 -2.62858 22.4534
rtibia 24.5616
rfoot -14.6791 13.0552
rtoes 31.1961
lfemur 8.38221 -2.50519 -13.3025
ltibia -6.36111e-015
lfoot 24.0829 -13.5845
ltoes 14.6848
587
root 6.45413 16.7905 -21.903 -165.458 -9.32113 -180.187
lowerback -11.7484 -2.31954 1.00709
upperback -0.277569 -3.3099 0.280189
thorax 6.257 -1.62642 -0.835043
lowerneck 1.93659 -3.53914 -6.22206
upperneck -12.868 -4.54801 12.7295
head -3.65322 -2.93603 5.12544
rclavicle 1.74931e-014 -3.10601e-015
rhumerus -38.7758 -28.0358 -73.8948
rradius 26.027
rwrist 35.1589
rhand -0.871661 -3.48446
rfingers 7.12502
rthumb 24.7552 -31.9025
lclavicle 1.74931e-014 -3.10601e-015
lhumerus -24.795 17.5495 83.999
lradius 14.528
lwrist -40.0896
lhand -10.316 7.23474
lfingers 7.12502
lthumb 15.6794 36.6195
rfemur -28.1163 -2.50405 22.4097
rtibia 24.527
rfoot -14.7013 12.9233
rtoes 31.3241
lfemur 8.42581 -2.50976 -13.2923
ltibia -1.90833e-014
lfoot 23.9925 -13.5045
ltoes 15.1449
588
root 6.4471 16.794 -21.9052 -165.585 -9.42117 -179.901
lowerback -11.6299 -2.32845 1.27885
upperback -0.296568 -3.36533 0.412656
thorax 6.16213 -1.64919 -0.851417
lowerneck 1.96646 -3.49336 -6.39399
upperneck -12.8723 -4.48581 12.8175
head -3.65831 -2.9022 5.18168
rclavicle -2.12358e-014 4.5969e-015
rhumerus -38.892 -27.9629 -73.7332
rradius 26.0142
rwrist 35.2111
rhand -0.820339 -3.32464
rfingers 7.12502
rthumb 24.8044 -31.736
lclavicle -2.12358e-014 4.5969e-015
lhumerus -25.0962 18.0535 83.6708
lradius 14.4405
lwrist -40.4538
lhand -10.3482 7.2052
lfingers 7.12502
lthumb 15.6483 36.5924
rfemur -28.007 -2.42736 22.6671
rtibia 24.565
rfoot -14.6954 12.8667
rtoes 31.6633
lfemur 8.5057 -2.54544 -12.9838
ltibia -1.27222e-014
lfoot 23.9346 -13.5184
ltoes 14.7614
